<svg width="119" height="28" viewBox="0 0 119 28" fill="none" xmlns="http://www.w3.org/2000/svg">
<path fill-rule="evenodd" clip-rule="evenodd" d="M96.4722 8.63353C96.925 9.41474 97.0731 10.3036 97.122 11.3028L97.1863 12.6346V21.9477L97.252 23.281C97.3833 25.4583 98.9891 27.0682 101.183 27.2052L102.509 27.2709V12.6346L102.575 11.3028C102.63 10.3147 102.776 9.40915 103.236 8.62235C103.705 7.81533 104.377 7.14576 105.186 6.68089C105.996 6.21601 106.913 5.97218 107.846 5.97388C108.779 5.97558 109.695 6.22275 110.503 6.69057C111.31 7.15839 111.98 7.8304 112.446 8.63912C112.899 9.42033 113.04 10.3259 113.094 11.3028L113.16 12.6304V21.9477L113.226 23.281C113.363 25.4695 114.956 27.0794 117.157 27.2052L118.483 27.2709V11.3028C118.483 8.4792 117.362 5.77119 115.366 3.77421C113.369 1.77724 110.662 0.654789 107.838 0.653678C106.327 0.652084 104.833 0.973018 103.455 1.59504C102.078 2.21706 100.849 3.12585 99.8514 4.26068C98.8529 3.12629 97.6241 2.21773 96.2469 1.59552C94.8697 0.973316 93.3758 0.65176 91.8645 0.65228C89.6537 0.65228 87.6021 1.32309 85.9027 2.48164C84.8657 1.32449 82.5459 0.65228 81.214 0.65228V27.2709L82.5459 27.2052C84.7735 27.0585 86.3835 25.4918 86.4701 23.281L86.5414 21.9477V12.6346L86.607 11.3028C86.663 10.298 86.8027 9.41474 87.2569 8.62794C87.7258 7.82142 88.3981 7.15202 89.2066 6.68657C90.0151 6.22112 90.9316 5.97592 91.8645 5.97544C92.7982 5.97564 93.7153 6.22133 94.5241 6.68787C95.3328 7.15441 96.0046 7.8254 96.4722 8.63353V8.63353ZM5.34953 27.2066L6.68137 27.2709H26.645L26.5793 25.9432C26.399 23.7547 24.8492 22.1559 22.6536 22.0134L21.3218 21.9477H9.34504L25.3131 5.97404L25.2474 4.6478C25.144 2.43691 23.5285 0.839548 21.3218 0.717963L19.99 0.65787L0.0263672 0.65228L0.0920507 1.98412C0.266741 4.15167 1.83895 5.78398 4.01629 5.90976L5.34953 5.97544H17.3263L1.35821 21.9491L1.42389 23.281C1.55526 25.4751 3.13865 27.064 5.34953 27.2052V27.2066ZM75.9887 4.54857C77.2248 5.78443 78.2054 7.25168 78.8744 8.86654C79.5434 10.4814 79.8877 12.2122 79.8877 13.9602C79.8877 15.7081 79.5434 17.439 78.8744 19.0538C78.2054 20.6687 77.2248 22.1359 75.9887 23.3718C73.4913 25.8671 70.1054 27.2688 66.575 27.2688C63.0446 27.2688 59.6586 25.8671 57.1613 23.3718C51.9639 18.1744 51.9639 9.74595 57.1613 4.54857C58.3962 3.31313 59.8625 2.33304 61.4763 1.66427C63.09 0.995506 64.8197 0.651155 66.5666 0.650882C68.3163 0.649667 70.0491 0.993412 71.6658 1.66245C73.2825 2.3315 74.7515 3.31271 75.9887 4.54997V4.54857ZM72.2224 8.31769C73.7194 9.81586 74.5603 11.8471 74.5603 13.9651C74.5603 16.083 73.7194 18.1143 72.2224 19.6125C70.7242 21.1095 68.6929 21.9504 66.575 21.9504C64.457 21.9504 62.4258 21.1095 60.9276 19.6125C59.4305 18.1143 58.5896 16.083 58.5896 13.9651C58.5896 11.8471 59.4305 9.81586 60.9276 8.31769C62.4258 6.82065 64.457 5.97971 66.575 5.97971C68.6929 5.97971 70.7242 6.82065 72.2224 8.31769V8.31769ZM38.6329 0.650882C40.3799 0.651338 42.1096 0.99591 43.7234 1.66492C45.3372 2.33393 46.8034 3.31427 48.0382 4.54997C53.237 9.74595 53.237 18.1758 48.0382 23.3718C45.5409 25.8671 42.1549 27.2688 38.6245 27.2688C35.0941 27.2688 31.7082 25.8671 29.2108 23.3718C24.0134 18.1744 24.0134 9.74595 29.2108 4.54857C30.4458 3.31313 31.912 2.33304 33.5258 1.66427C35.1396 0.995506 36.8693 0.651155 38.6161 0.650882H38.6329ZM44.2719 8.31489C45.7694 9.81312 46.6106 11.8447 46.6106 13.963C46.6106 16.0813 45.7694 18.1128 44.2719 19.6111C42.7737 21.1081 40.7425 21.949 38.6245 21.949C36.5066 21.949 34.4753 21.1081 32.9771 19.6111C31.4801 18.1129 30.6392 16.0816 30.6392 13.9637C30.6392 11.8457 31.4801 9.81446 32.9771 8.31629C34.4753 6.81925 36.5066 5.97832 38.6245 5.97832C40.7425 5.97832 42.7737 6.81925 44.2719 8.31629V8.31489Z" fill="#2D8CFF"/>
</svg>
