<svg width="203" height="34" viewBox="0 0 203 34" fill="none" xmlns="http://www.w3.org/2000/svg">
<path d="M148.089 30.0884H152.741V3.38623H148.089V30.0884Z" fill="#080808"/>
<path fill-rule="evenodd" clip-rule="evenodd" d="M122.443 29.8157C123.454 30.2361 124.482 30.4461 125.528 30.4461C127.254 30.4461 128.799 30.0259 130.162 29.1852C131.526 28.3446 132.582 27.1858 133.332 25.7091C134.082 24.2208 134.457 22.5339 134.457 20.648C134.457 18.7622 134.07 17.0753 133.298 15.5871C132.525 14.0989 131.452 12.9458 130.077 12.1279C128.703 11.2986 127.141 10.8896 125.391 10.901C124.278 10.901 123.21 11.1168 122.188 11.5485C121.165 11.9802 120.313 12.5937 119.632 13.3889C119.579 13.4494 119.528 13.5106 119.478 13.5723V3.40326H114.809V30.0884H119.444L119.435 27.5955C119.555 27.7424 119.683 27.886 119.819 28.0264C120.558 28.7877 121.432 29.384 122.443 29.8157ZM127.214 25.5045C126.453 25.9702 125.584 26.2032 124.607 26.2032C123.642 26.2032 122.756 25.9646 121.949 25.4874C121.142 24.9989 120.501 24.3344 120.024 23.4938C119.558 22.6531 119.325 21.6989 119.325 20.631C119.314 19.5631 119.541 18.6089 120.006 17.7682C120.484 16.9162 121.125 16.2573 121.932 15.7916C122.739 15.3144 123.63 15.0815 124.607 15.0929C125.584 15.0815 126.453 15.3087 127.214 15.7745C127.987 16.2289 128.578 16.8821 128.987 17.7341C129.407 18.5748 129.617 19.5405 129.617 20.631C129.617 21.7215 129.407 22.6872 128.987 23.5278C128.578 24.3685 127.987 25.0274 127.214 25.5045Z" fill="#080808"/>
<path d="M60.8301 5.00506H66.1466L70.9025 22.3737L75.9619 5.00506H80.3923L85.8794 22.0251L90.4461 5.00506H95.3196L88.1286 30.0884H83.5447L77.9653 13.4611L72.8434 30.0884H68.2084L60.8301 5.00506Z" fill="#080808"/>
<path fill-rule="evenodd" clip-rule="evenodd" d="M103.171 30.5314C101.319 30.5427 99.6491 30.1337 98.1608 29.3045C96.6841 28.4638 95.5196 27.2994 94.6676 25.8113C93.827 24.323 93.4065 22.6247 93.4065 20.7162C93.4065 18.8646 93.8384 17.1888 94.7017 15.6893C95.5649 14.1898 96.7352 13.0197 98.2119 12.179C99.6888 11.3384 101.336 10.918 103.154 10.918C105.198 10.918 106.988 11.3724 108.521 12.2812C110.066 13.1901 111.219 14.4794 111.98 16.1494C112.753 17.808 113.031 19.7108 112.815 21.8578H98.2192C98.26 22.7132 98.4734 23.4915 98.8595 24.1923C99.2912 24.9648 99.8933 25.567 100.666 25.9986C101.438 26.4303 102.302 26.6461 103.256 26.6461C103.983 26.6349 104.659 26.5098 105.284 26.2714C105.908 26.0215 106.437 25.6862 106.869 25.266C107.311 24.8456 107.624 24.3685 107.806 23.8346H112.679C112.384 25.141 111.793 26.3054 110.907 27.3278C110.021 28.3388 108.907 29.1283 107.567 29.6964C106.226 30.2643 104.761 30.5427 103.171 30.5314ZM98.8766 17.1718C98.6042 17.6465 98.4157 18.1578 98.3107 18.7055H107.986C107.916 18.0135 107.702 17.383 107.345 16.814C106.937 16.1437 106.38 15.6268 105.676 15.2633C104.971 14.8884 104.176 14.701 103.29 14.701C102.347 14.701 101.489 14.9168 100.717 15.3485C99.9445 15.7802 99.3309 16.388 98.8766 17.1718Z" fill="#080808"/>
<path d="M137.882 11.31C137.882 9.78768 138.228 8.43583 138.921 7.25437C139.614 6.06155 140.585 5.13569 141.835 4.47681C143.096 3.80655 144.567 3.46007 146.248 3.43735V7.57812C145.465 7.58948 144.794 7.75422 144.238 8.0723C143.693 8.37902 143.272 8.82775 142.977 9.41848C142.705 9.96232 142.558 10.5928 142.536 11.31H146.146V15.2463H142.534V30.0884H137.882V15.2463H134.883V11.31H137.882Z" fill="#080808"/>
<path fill-rule="evenodd" clip-rule="evenodd" d="M164.567 30.4974C162.669 30.4974 160.971 30.0826 159.471 29.2534C157.983 28.4127 156.813 27.2539 155.961 25.7772C155.121 24.2889 154.7 22.602 154.7 20.7162C154.7 18.8191 155.121 17.1264 155.961 15.6382C156.813 14.1386 157.983 12.9742 159.471 12.1449C160.971 11.3156 162.669 10.901 164.567 10.901C166.475 10.901 168.179 11.3156 169.679 12.1449C171.19 12.9742 172.365 14.1329 173.206 15.6211C174.047 17.1093 174.473 18.8077 174.484 20.7162C174.473 22.602 174.047 24.2889 173.206 25.7772C172.377 27.2539 171.207 28.4127 169.696 29.2534C168.185 30.0826 166.475 30.4974 164.567 30.4974ZM164.567 26.2203C165.566 26.2203 166.452 25.993 167.225 25.5385C167.997 25.0728 168.594 24.4252 169.014 23.596C169.434 22.7553 169.645 21.7955 169.645 20.7162C169.645 19.6256 169.434 18.66 169.014 17.8193C168.594 16.9787 167.997 16.3312 167.225 15.8767C166.452 15.411 165.566 15.1781 164.567 15.1781C163.578 15.1781 162.698 15.411 161.925 15.8767C161.164 16.3312 160.573 16.9787 160.153 17.8193C159.733 18.66 159.528 19.6256 159.54 20.7162C159.54 21.7955 159.75 22.7553 160.17 23.596C160.602 24.4252 161.193 25.0728 161.942 25.5385C162.704 25.993 163.578 26.2203 164.567 26.2203Z" fill="#080808"/>
<path d="M179.511 11.31H174.331L179.937 30.0884H184.47L188.157 18.0946L192.138 30.0884H196.603L202.226 11.31H197.54L194.351 22.9983L190.826 11.31H186.293L182.785 23.2559L179.511 11.31Z" fill="#080808"/>
<path fill-rule="evenodd" clip-rule="evenodd" d="M54.0903 0.110352L36.8525 33.8082H20.6614L27.8754 19.8423H27.5518C21.6003 27.5681 12.7206 32.654 0.0683594 33.8082V20.0357C0.0683594 20.0357 8.16229 19.5576 12.9205 14.555H0.0683594V0.110618H14.5128V11.9909L14.837 11.9896L20.7395 0.110618H31.6634V11.9156L31.9876 11.9151L38.1115 0.110352H54.0903Z" fill="#146EF5"/>
</svg>
