<svg width="198" height="40" viewBox="0 0 198 40" fill="none" xmlns="http://www.w3.org/2000/svg">
<path d="M23.4313 7.87656L12.0257 15.1525L23.4313 22.4285L12.0257 29.7045L0.620117 22.3892L12.0257 15.1132L0.620117 7.87656L12.0257 0.600586L23.4313 7.87656ZM11.9667 32.0446L23.3723 24.7686L34.7779 32.0446L23.3723 39.3206L11.9667 32.0446ZM23.4313 22.3892L34.8369 15.1132L23.4313 7.87656L34.7779 0.600586L46.1835 7.87656L34.7779 15.1525L46.1835 22.4285L34.7779 29.7045L23.4313 22.3892Z" fill="#0061FF"/>
<path d="M55.1318 7.87832H64.3546C70.2344 7.87832 75.0916 11.2803 75.0916 19.0479V20.6801C75.0916 28.5067 70.549 32.0267 64.5316 32.0267H55.1318V7.87832ZM60.284 12.2636V27.6218H64.2366C67.5797 27.6218 69.8214 25.439 69.8214 20.5818V19.3036C69.8214 14.4464 67.4617 12.2636 64.0597 12.2636H60.284ZM77.825 12.4996H81.9546L82.6232 17.0421C83.4098 13.9547 85.4156 12.3029 89.0536 12.3029H90.3318V17.5141H88.208C84.0194 17.5141 82.9969 18.9693 82.9969 23.0989V32.0857H77.9037V12.4996H77.825ZM91.3544 22.6859V22.1353C91.3544 15.5869 95.543 12.0079 101.246 12.0079C107.067 12.0079 111.137 15.5869 111.137 22.1353V22.6859C111.137 29.1163 107.185 32.5773 101.246 32.5773C94.9334 32.5183 91.3544 29.136 91.3544 22.6859ZM105.926 22.6269V22.1353C105.926 18.4973 104.097 16.3145 101.187 16.3145C98.3354 16.3145 96.4476 18.3203 96.4476 22.1353V22.6269C96.4476 26.1469 98.2764 28.1527 101.187 28.1527C104.097 28.0937 105.926 26.1469 105.926 22.6269ZM113.812 12.4996H118.059L118.551 16.1965C119.573 13.7188 121.756 12.0079 124.981 12.0079C129.956 12.0079 133.24 15.5869 133.24 22.214V22.7646C133.24 29.195 129.602 32.597 124.981 32.597C121.894 32.597 119.77 31.2008 118.728 28.959V38.8504H113.753L113.812 12.4996ZM128.069 22.6269V22.1943C128.069 18.3007 126.063 16.3735 123.388 16.3735C120.537 16.3735 118.649 18.5563 118.649 22.1943V22.5679C118.649 26.0289 120.478 28.2117 123.329 28.2117C126.259 28.1527 128.069 26.2846 128.069 22.6269ZM140.772 28.4674L140.339 32.0464H135.974V5.95117H140.949V15.9606C142.05 13.4041 144.233 12.0079 147.32 12.0079C152.001 12.0669 155.462 15.292 155.462 21.7813V22.3909C155.462 28.8803 152.178 32.597 147.202 32.597C143.918 32.5183 141.795 31.0041 140.772 28.4674ZM150.231 22.3909V21.8993C150.231 18.3203 148.284 16.3145 145.551 16.3145C142.758 16.3145 140.811 18.5563 140.811 21.9583V22.3909C140.811 26.0289 142.699 28.1527 145.492 28.1527C148.481 28.1527 150.231 26.2846 150.231 22.3909ZM157.644 22.6859V22.1353C157.644 15.5869 161.833 12.0079 167.536 12.0079C173.357 12.0079 177.427 15.5869 177.427 22.1353V22.6859C177.427 29.1163 173.416 32.5773 167.536 32.5773C161.223 32.5183 157.644 29.136 157.644 22.6859ZM172.255 22.6269V22.1353C172.255 18.4973 170.427 16.3145 167.516 16.3145C164.665 16.3145 162.777 18.3203 162.777 22.1353V22.6269C162.777 26.1469 164.606 28.1527 167.516 28.1527C170.446 28.0937 172.255 26.1469 172.255 22.6269ZM184.094 21.8993L177.231 12.4996H183.11L187.063 18.3793L191.075 12.4996H196.895L189.934 21.8403L197.269 32.0464H191.507L187.024 25.557L182.658 32.0464H176.641L184.094 21.8993Z" fill="black"/>
</svg>
