<svg width="147" height="38" viewBox="0 0 147 38" fill="none" xmlns="http://www.w3.org/2000/svg">
<path d="M0.757814 23.8008C0.757336 24.277 0.850658 24.7486 1.03245 25.1887C1.21425 25.6289 1.48095 26.0289 1.81734 26.366C2.15373 26.703 2.55321 26.9705 2.99298 27.1532C3.43276 27.3359 3.9042 27.4302 4.38041 27.4306C5.3422 27.4297 6.26422 27.0467 6.94369 26.366C7.62315 25.6853 8.00441 24.7626 8.0036 23.8008V20.1709H4.38041C2.37958 20.1709 0.757814 21.7963 0.757814 23.8008V23.8008ZM10.4187 23.8008V33.4804C10.4187 35.4855 12.0404 37.1109 14.0413 37.1109C15.003 37.1099 15.9251 36.727 16.6045 36.0463C17.284 35.3655 17.6653 34.4428 17.6645 33.481V23.8008C17.6649 23.3245 17.5716 22.8528 17.3898 22.4127C17.2079 21.9725 16.9412 21.5724 16.6047 21.2354C16.2683 20.8983 15.8687 20.6308 15.4289 20.4481C14.989 20.2655 14.5175 20.1713 14.0413 20.1709C12.0404 20.1709 10.4187 21.7963 10.4187 23.8008Z" fill="#E01E5A"/>
<path d="M23.7027 37.1109C24.6645 37.1099 25.5865 36.727 26.266 36.0463C26.9454 35.3655 27.3267 34.4428 27.3259 33.481C27.3267 32.5192 26.9454 31.5965 26.266 30.9158C25.5865 30.2351 24.6645 29.8521 23.7027 29.8512H20.0801V33.481C20.0801 35.4855 21.7018 37.1109 23.7027 37.1109ZM23.7027 27.4312H33.3641C35.3643 27.4312 36.9867 25.8058 36.9867 23.8008C36.9875 22.839 36.6063 21.9162 35.9268 21.2355C35.2473 20.5548 34.3253 20.1719 33.3635 20.1709H23.7027C21.7018 20.1709 20.0801 21.7963 20.0801 23.8008C20.0796 24.277 20.1729 24.7486 20.3547 25.1887C20.5365 25.6289 20.8032 26.0289 21.1396 26.366C21.476 26.703 21.8755 26.9705 22.3152 27.1532C22.755 27.3359 23.2265 27.4302 23.7027 27.4306" fill="#ECB22E"/>
<path d="M36.9867 14.1207C36.9867 12.1156 35.3643 10.4902 33.3635 10.4902C31.3627 10.4902 29.7409 12.1156 29.7409 14.1207V17.7505H33.3635C34.3253 17.7496 35.2473 17.3666 35.9268 16.6859C36.6063 16.0052 36.9875 15.0825 36.9867 14.1207V14.1207ZM27.3259 14.1207V4.44042C27.3267 3.47862 26.9454 2.5559 26.266 1.87518C25.5865 1.19447 24.6645 0.811512 23.7027 0.810547C21.7018 0.810547 20.0801 2.43595 20.0801 4.44042V14.1201C20.0801 16.1257 21.7018 17.7511 23.7027 17.7511C24.6645 17.7502 25.5865 17.3672 26.266 16.6865C26.9454 16.0058 27.3267 15.0831 27.3259 14.1213" fill="#2EB67D"/>
<path d="M14.0413 0.810547C12.0404 0.810547 10.4187 2.43595 10.4187 4.44042C10.4182 4.91662 10.5115 5.38825 10.6933 5.82839C10.8751 6.26853 11.1418 6.66855 11.4782 7.00561C11.8146 7.34268 12.2141 7.61019 12.6538 7.79286C13.0936 7.97554 13.5651 8.06981 14.0413 8.07028H17.6645V4.44042C17.6653 3.47862 17.284 2.5559 16.6045 1.87518C15.9251 1.19447 15.003 0.811512 14.0413 0.810547V0.810547ZM14.0413 10.4902H4.3804C2.37958 10.4902 0.757812 12.1156 0.757812 14.1207C0.757812 16.1251 2.37958 17.7505 4.3804 17.7505H14.0419C16.0421 17.7505 17.6645 16.1251 17.6645 14.1207C17.6645 12.1156 16.0421 10.4902 14.0413 10.4902" fill="#36C5F0"/>
<path d="M46.6471 29.5135L48.4235 25.3614C50.3685 26.8018 52.9055 27.5642 55.4431 27.5642C57.3038 27.5642 58.4877 26.8443 58.4877 25.7429C58.4452 22.6922 47.2815 25.0648 47.1966 17.3951C47.1541 13.4972 50.6221 10.489 55.528 10.489C58.4452 10.489 61.3637 11.2095 63.4355 12.8622L61.7755 17.1028C59.8693 15.877 57.5149 15.0225 55.2739 15.0225C53.7516 15.0225 52.7363 15.7424 52.7363 16.6752C52.7787 19.6834 64.028 18.0307 64.1548 25.3614C64.1548 29.3443 60.7711 32.1408 55.9501 32.1408C52.3985 32.1408 49.1422 31.2935 46.6465 29.5135H46.6471ZM117.381 23.8579C116.933 24.6546 116.281 25.3177 115.491 25.7792C114.702 26.2407 113.804 26.484 112.89 26.484C110.041 26.484 107.731 24.1696 107.731 21.3149C107.731 18.4601 110.041 16.1457 112.89 16.1457C113.804 16.1458 114.702 16.389 115.491 16.8505C116.281 17.312 116.933 17.9751 117.381 18.7718L122.32 16.0305C120.47 12.7245 116.942 10.489 112.89 10.489C106.923 10.489 102.086 15.3354 102.086 21.3149C102.086 27.2937 106.923 32.1408 112.89 32.1408C116.942 32.1408 120.47 29.9053 122.32 26.5993L117.381 23.8579ZM67.3595 31.7169H73.5336V1.47705H67.3601L67.3595 31.7169ZM125.438 1.47705V31.7169H131.612V22.657L138.928 31.7169H146.82L137.516 20.954L146.143 10.9111H138.59L131.612 19.2607V1.47705H125.438ZM92.5551 10.9123V13.3704C91.5404 11.6753 89.0453 10.489 86.4234 10.489C81.0105 10.489 76.7395 15.2772 76.7395 21.2936C76.7395 27.3101 81.0105 32.1408 86.4234 32.1408C89.0453 32.1408 91.5404 30.9545 92.5551 29.2593V31.7169H98.7292V10.9123H92.5551ZM92.5551 23.8998C91.6672 25.3826 89.8064 26.4834 87.7347 26.4834C84.8847 26.4834 82.5752 24.1696 82.5752 21.3149C82.5752 18.4601 84.8847 16.1457 87.7347 16.1457C89.8064 16.1457 91.6672 17.2896 92.5551 18.8143V23.8998Z" fill="black"/>
</svg>
