<svg width="170" height="52" viewBox="0 0 170 52" fill="none" xmlns="http://www.w3.org/2000/svg">
<path d="M25.9232 0.550781C11.8896 0.550781 0.512695 11.9274 0.512695 25.9609C0.512695 39.995 11.8896 51.3708 25.9232 51.3708C39.9582 51.3708 51.3339 39.995 51.3339 25.9609C51.3339 11.9283 39.9582 0.551995 25.9229 0.551995L25.9232 0.550781V0.550781ZM37.5762 37.1995C37.1211 37.946 36.144 38.1826 35.3976 37.7245C29.4315 34.0802 21.9209 33.2549 13.0758 35.2757C12.2234 35.4699 11.3738 34.9359 11.1796 34.0832C10.9845 33.2306 11.5164 32.381 12.3709 32.1868C22.0504 29.9754 30.3533 30.9275 37.0513 35.0209C37.7977 35.479 38.0344 36.4531 37.5762 37.1995V37.1995ZM40.6864 30.2806C40.1129 31.2128 38.8931 31.5071 37.9616 30.9336C31.1313 26.7353 20.7196 25.5194 12.6406 27.9718C11.5929 28.2883 10.4863 27.6978 10.1683 26.6519C9.85269 25.6041 10.4435 24.4996 11.4894 24.181C20.7178 21.3809 32.1903 22.7373 40.034 27.5573C40.9656 28.1308 41.2599 29.3506 40.6864 30.2809V30.2806ZM40.9535 23.0759C32.7638 18.2115 19.2519 17.7643 11.4327 20.1374C10.1771 20.5182 8.84924 19.8094 8.46873 18.5538C8.08823 17.2976 8.79644 15.9707 10.053 15.589C19.0288 12.8641 33.9502 13.3906 43.3791 18.988C44.5109 19.6583 44.8811 21.1169 44.2105 22.2448C43.543 23.3742 42.0804 23.7465 40.9547 23.0759H40.9535ZM69.6462 24.008C65.2585 22.9618 64.4787 22.2275 64.4787 20.6845C64.4787 19.2268 65.8502 18.2458 67.8923 18.2458C69.8707 18.2458 71.8309 18.9908 73.8882 20.5243C73.9489 20.5707 74.0277 20.5892 74.1036 20.5771C74.1825 20.5656 74.2493 20.5234 74.2948 20.46L76.437 17.4402C76.525 17.3158 76.5007 17.1444 76.3824 17.0494C73.9337 15.0853 71.1785 14.1304 67.956 14.1304C63.2194 14.1304 59.909 16.9732 59.909 21.0408C59.909 25.4026 62.7643 26.9471 67.6981 28.1393C71.8946 29.1063 72.6046 29.9165 72.6046 31.3645C72.6046 32.9696 71.1724 33.9679 68.8663 33.9679C66.3054 33.9679 64.2147 33.1032 61.8783 31.0823C61.8206 31.0307 61.7417 31.0095 61.6689 31.0125C61.59 31.0186 61.5202 31.055 61.4717 31.1126L59.0685 33.971C58.9683 34.0924 58.9805 34.2683 59.0958 34.3715C61.8145 36.799 65.1584 38.0795 68.7692 38.0795C73.873 38.0795 77.1713 35.2909 77.1713 30.9731C77.1804 27.3297 74.9987 25.3119 69.6553 24.012L69.6462 24.008V24.008ZM88.72 19.6811C86.508 19.6811 84.6935 20.5525 83.1945 22.3382V20.3283C83.1945 20.1696 83.067 20.0403 82.9093 20.0403H78.9798C78.822 20.0403 78.6946 20.1696 78.6946 20.3283V42.6613C78.6946 42.8191 78.822 42.9496 78.9798 42.9496H82.9093C83.067 42.9496 83.1945 42.8191 83.1945 42.6613V35.6126C84.6935 37.2905 86.508 38.1128 88.72 38.1128C92.8316 38.1128 96.9947 34.948 96.9947 28.8979C97.0007 22.8465 92.8376 19.6808 88.7231 19.6808L88.72 19.6811ZM92.425 28.8979C92.425 31.9774 90.5285 34.1288 87.8097 34.1288C85.1243 34.1288 83.0974 31.8803 83.0974 28.8979C83.0974 25.9151 85.1243 23.6673 87.8097 23.6673C90.483 23.667 92.425 25.8663 92.425 28.8976V28.8979ZM107.66 19.6811C102.365 19.6811 98.2175 23.758 98.2175 28.9637C98.2175 34.1136 102.338 38.1462 107.597 38.1462C112.91 38.1462 117.07 34.0832 117.07 28.8979C117.07 23.7301 112.937 19.6817 107.66 19.6817V19.6811V19.6811ZM107.66 34.1591C104.844 34.1591 102.72 31.8955 102.72 28.8964C102.72 25.8836 104.772 23.6973 107.597 23.6973C110.431 23.6973 112.567 25.96 112.567 28.9622C112.567 31.9744 110.504 34.1591 107.66 34.1591V34.1591ZM128.376 20.0403H124.052V15.6205C124.052 15.4621 123.924 15.3329 123.767 15.3329H119.837C119.679 15.3329 119.549 15.4621 119.549 15.6205V20.0403H117.662C117.504 20.0403 117.376 20.1696 117.376 20.3283V23.7046C117.376 23.863 117.504 23.9926 117.662 23.9926H119.549V32.7299C119.549 36.2589 121.306 38.0491 124.774 38.0491C126.182 38.0491 127.35 37.7578 128.452 37.1328C128.543 37.0842 128.597 36.9871 128.597 36.8839V33.6675C128.597 33.5704 128.546 33.4764 128.461 33.4248C128.376 33.3702 128.27 33.3671 128.182 33.4127C127.426 33.792 126.695 33.9679 125.875 33.9679C124.616 33.9679 124.052 33.3945 124.052 32.114V23.9941H128.376C128.534 23.9941 128.661 23.8648 128.661 23.7061V20.3301C128.667 20.1714 128.54 20.0422 128.379 20.0422L128.376 20.0403V20.0403ZM143.438 20.0576V19.5148C143.438 17.9178 144.051 17.2057 145.423 17.2057C146.242 17.2057 146.9 17.3683 147.638 17.6141C147.729 17.6426 147.823 17.6283 147.896 17.574C147.972 17.5197 148.014 17.4326 148.014 17.3404V14.0299C148.014 13.9034 147.935 13.7914 147.811 13.7541C147.034 13.5226 146.039 13.285 144.546 13.285C140.92 13.285 138.999 15.3283 138.999 19.1919V20.0233H137.112C136.954 20.0233 136.823 20.1526 136.823 20.311V23.7046C136.823 23.863 136.954 23.9926 137.112 23.9926H138.999V37.4665C138.999 37.6274 139.129 37.7548 139.287 37.7548H143.214C143.375 37.7548 143.502 37.6274 143.502 37.4665V23.9935H147.17L152.79 37.4665C152.153 38.8805 151.525 39.1627 150.669 39.1627C149.977 39.1627 149.246 38.9564 148.503 38.5468C148.433 38.5103 148.348 38.5043 148.275 38.5255C148.199 38.5528 148.135 38.6074 148.105 38.6803L146.773 41.6023C146.709 41.7419 146.764 41.9027 146.897 41.9756C148.287 42.7281 149.54 43.0497 151.091 43.0497C153.992 43.0497 155.597 41.6964 157.008 38.0613L163.823 20.4509C163.859 20.3623 163.847 20.2621 163.793 20.1836C163.741 20.1056 163.653 20.0585 163.559 20.0585H159.469C159.344 20.0585 159.235 20.1365 159.196 20.2515L155.005 32.2171L150.417 20.2436C150.375 20.1323 150.269 20.0585 150.15 20.0585H143.438V20.0576V20.0576ZM134.705 20.0403H130.776C130.618 20.0403 130.488 20.1696 130.488 20.3283V37.4665C130.488 37.6274 130.618 37.7548 130.776 37.7548H134.705C134.863 37.7548 134.994 37.6274 134.994 37.4665V20.3295C134.994 20.1708 134.866 20.0415 134.705 20.0415V20.0403ZM132.763 12.2363C131.207 12.2363 129.945 13.4962 129.945 15.0525C129.945 16.6097 131.207 17.8711 132.763 17.8711C134.32 17.8711 135.579 16.6097 135.579 15.0525C135.579 13.4965 134.317 12.2363 132.763 12.2363ZM167.179 25.551C165.625 25.551 164.415 24.3024 164.415 22.7861C164.415 21.2698 165.641 20.007 167.194 20.007C168.748 20.007 169.958 21.2553 169.958 22.7703C169.958 24.2866 168.733 25.551 167.179 25.551ZM167.194 20.2819C165.777 20.2819 164.706 21.4076 164.706 22.7861C164.706 24.164 165.771 25.2746 167.179 25.2746C168.596 25.2746 169.667 24.1497 169.667 22.7703C169.667 21.3924 168.602 20.2819 167.194 20.2819V20.2819ZM167.807 23.0546L168.59 24.1494H167.928L167.224 23.1451H166.621V24.1494H166.068V21.2474H167.361C168.038 21.2474 168.481 21.5924 168.481 22.1732C168.484 22.649 168.208 22.9396 167.81 23.0546H167.807ZM167.34 21.7453H166.621V22.6632H167.34C167.698 22.6632 167.913 22.4875 167.913 22.2038C167.913 21.9052 167.698 21.7453 167.34 21.7453V21.7453Z" fill="#1ED760"/>
</svg>
