<svg width="98" height="26" viewBox="0 0 98 26" fill="none" xmlns="http://www.w3.org/2000/svg">
<g filter="url(#filter0_d_2530_445)">
<path d="M13 17.3275L17.635 20.125L16.405 14.8525L20.5 11.305L15.1075 10.8475L13 5.875L10.8925 10.8475L5.5 11.305L9.595 14.8525L8.365 20.125L13 17.3275Z" fill="#FFB400"/>
<path d="M31 17.3275L35.635 20.125L34.405 14.8525L38.5 11.305L33.1075 10.8475L31 5.875L28.8925 10.8475L23.5 11.305L27.595 14.8525L26.365 20.125L31 17.3275Z" fill="#FFB400"/>
<path d="M49 17.3275L53.635 20.125L52.405 14.8525L56.5 11.305L51.1075 10.8475L49 5.875L46.8925 10.8475L41.5 11.305L45.595 14.8525L44.365 20.125L49 17.3275Z" fill="#FFB400"/>
<path d="M67 17.3275L71.635 20.125L70.405 14.8525L74.5 11.305L69.1075 10.8475L67 5.875L64.8925 10.8475L59.5 11.305L63.595 14.8525L62.365 20.125L67 17.3275Z" fill="#FFB400"/>
<path d="M85 17.3275L89.635 20.125L88.405 14.8525L92.5 11.305L87.1075 10.8475L85 5.875L82.8925 10.8475L77.5 11.305L81.595 14.8525L80.365 20.125L85 17.3275Z" fill="#D9D9D9"/>
</g>
<defs>
<filter id="filter0_d_2530_445" x="0" y="0" width="99" height="26" filterUnits="userSpaceOnUse" color-interpolation-filters="sRGB">
<feFlood flood-opacity="0" result="BackgroundImageFix"/>
<feColorMatrix in="SourceAlpha" type="matrix" values="0 0 0 0 0 0 0 0 0 0 0 0 0 0 0 0 0 0 127 0" result="hardAlpha"/>
<feOffset/>
<feGaussianBlur stdDeviation="2"/>
<feComposite in2="hardAlpha" operator="out"/>
<feColorMatrix type="matrix" values="0 0 0 0 0 0 0 0 0 0 0 0 0 0 0 0 0 0 0.25 0"/>
<feBlend mode="normal" in2="BackgroundImageFix" result="effect1_dropShadow_2530_445"/>
<feBlend mode="normal" in="SourceGraphic" in2="effect1_dropShadow_2530_445" result="shape"/>
</filter>
</defs>
</svg>
